<svg id="Calque_1" data-name="Calque 1" xmlns="http://www.w3.org/2000/svg" viewBox="0 0 313 313"><defs><style>.cls-1{fill-rule:evenodd;}</style></defs><path class="cls-1" d="M88.92,147.76l1,5.9h-.56c-.78-3.67-4.12-5.23-7.68-5.23a6.29,6.29,0,0,0-1.9.22v10.13h1.34c2.89,0,4.68-1.11,4.68-3.45h.55v8.24h-.44c-.23-1.78-.89-4-4.68-4H79.79v9.35c0,1.56.67,2.45,3,2.45v.56H72.89v-.56c2.23,0,3-.89,3-2.45V150.77c0-1.45-.89-2.45-3.12-2.45v-.56Zm20,0,1,5.9h-.55c-.78-3.67-4.12-5.23-7.69-5.23a6.26,6.26,0,0,0-1.89.22v10.13h1.34c2.89,0,4.68-1.11,4.68-3.45h.55v8.24H106c-.23-1.78-.89-4-4.68-4H99.83v9.35c0,1.56.67,2.45,3,2.45v.56H92.93v-.56c2.23,0,3-.89,3-2.45V150.77c0-1.45-.9-2.45-3.12-2.45v-.56Zm-41,0v.56c-1.67,0-2.67.89-2.67,2.45v18.14c0,1.67,1.12,2.45,2.67,2.45v.56H58.64v-.56c1.67-.11,2.67-.78,2.67-2.45V150.77c0-1.56-1-2.45-2.67-2.45v-.56Zm-12.13-6.57,1,7.24h-.45c-1.44-3.79-4-6.35-9-6.35v25.61c0,2.78,1.55,3.67,3.23,3.67v.56H39.49v-.56a3.31,3.31,0,0,0,3.45-3.67V142.08c-5.12,0-7.45,2.34-9.24,6.35h-.44l.78-7.24ZM192.79,164a6.32,6.32,0,0,0,6.57,6.57,6.58,6.58,0,0,0,5-2.45l-7.79-10A6,6,0,0,0,192.79,164Zm10.69-14.91c0-3.1-1.35-4.68-4-4.68s-4.23,1.56-4.23,4.12c0,2.89,3.9,6.9,3.9,6.9,3.12-1.78,4.34-3.56,4.34-6.34Zm-3.78,7,6.68,8.35a8.71,8.71,0,0,0,.78-2.67c0-1.56-.78-2.12-2.12-2.34V159h7.24s.11.44,0,.44a6.93,6.93,0,0,0-3.34,1.45,15,15,0,0,0-2.12,4.12l3.12,3.78a7.13,7.13,0,0,0,5,2.56v.56h-7.8v-.56l-2.22-2.67a11.88,11.88,0,0,1-7.91,3.57c-4.78,0-7.9-2.68-7.9-6.35,0-4,3.78-6.57,6.79-8.57,0,0-3.23-3.68-3.23-7a6.62,6.62,0,0,1,6.9-6.68c3.57,0,6.35,2.56,6.35,5.68,0,3.56-4.12,5.12-6.23,6.79Zm48.53-15.47.34,9.68H248c-1-5.45-4.56-8.57-9.13-8.57-5.45,0-9.24,6.34-9.24,14.81,0,10.57,4.23,14.91,10,14.91,6,0,8.35-5.56,8.91-9.57h.56v4.23a11.53,11.53,0,0,1-10.36,5.9c-8,0-14.25-6.57-14.25-15.36,0-8,7-15.37,14.25-15.37,4.23,0,5.35,1.79,7,1.79,1.22,0,1.78-.78,1.89-2.45Zm29.28,26.83a2.23,2.23,0,0,1,2.23,2.22,2.23,2.23,0,0,1-4.45,0A2.23,2.23,0,0,1,277.51,167.47Zm-21.93-8c0,7.46,2.9,12,7.46,12s7.57-4.23,7.57-12c0-7.13-2.56-11.13-7.46-11.24S255.58,152.88,255.58,159.45Zm7.35-11.8a12.4,12.4,0,0,1,12.69,12.24c0,6.79-5.45,12-12.47,12s-12.69-5.46-12.69-12A12.55,12.55,0,0,1,262.93,147.65Zm-144.5,5.23,4.11,9.91h-8.12Zm13.35,18.48a2.87,2.87,0,0,1-2-1.33c-.33-.56-9.69-23.49-9.69-23.49l-8.57,20.93c-1,2.67-2.34,3.89-4.23,3.89v.56h7v-.56c-1.44-.11-2.33-.78-2.33-1.78,0-.78,2.22-6.12,2.22-6.12h8.46s2.34,5,2.45,6.12c.11.89-1.22,1.78-2.56,1.78v.56h9.24v-.56Zm3.9-3.67a3.65,3.65,0,0,1-3,3.67v.56h7v-.56a3.6,3.6,0,0,1-3.12-3.67V152l16.37,20.37V152.77c0-2.78,1.56-4.45,3.34-4.45v-.56h-7.91v.45c2.23.67,3.79,2,3.79,4.56v12l-13.59-17h-6.45v.45a3.56,3.56,0,0,1,3.56,3v16.48Zm21.49-19.37c1,0,1.23,0,2,1.44,0,0,7.46,11.92,7.46,12v7.12c0,1.56-1.34,2.45-3.34,2.56v.45h10.36v-.45c-1.9-.11-3.12-1-3.12-2.56v-8.35s4.78-8.57,5.23-9.35a6.23,6.23,0,0,1,4.56-3.12v-.33h-8.46l.11.33a2.63,2.63,0,0,1,2.34,4.12l-4.34,8-5.34-9.35c-.9-1.45.22-2.79,2.22-2.79v-.33h-9.69v.56Z"/></svg>