<svg id="Calque_1" data-name="Calque 1" xmlns="http://www.w3.org/2000/svg" viewBox="0 0 313 313"><path d="M229.3,119.49c-9.41-14-21.71-21.51-34.62-21.51-7.69,0-15.33,3.43-22.41,9.61a94.44,94.44,0,0,0-13.37,15,95.89,95.89,0,0,0-14.38-15.07c-8.68-7.09-17-9.56-25.35-9.56-14.44,0-27,9.4-35.76,22.86-9.84,15.16-15,34.8-15,53.64,0,10.36,2,19.46,6.21,26.39C79.71,209.37,88,215,101,215c11,0,19.35-4.94,29.11-18,5.58-7.43,8.41-11.94,19.56-31.71l5.55-9.84,1.36-2.41,1.35,2.22,15.8,26.4c5.31,8.89,12.22,18.77,18.13,24.33,7.68,7.25,14.63,9,22.47,9,12.62,0,20.12-6.66,24-13.33,4-6.89,6.32-15.62,6.32-27.5C244.6,154.22,239.6,134.86,229.3,119.49Zm-89.23,31.34c-5.56,8.53-13.82,22.15-20.82,31.84C110.5,194.78,106,196,101,196a11.62,11.62,0,0,1-10.14-5.83c-1.94-3.13-3.41-8.29-3.41-15,0-16.31,4.62-33.3,12.18-44.7,5.34-8.07,11.72-13.34,19.25-13.34,9.29,0,15.11,5.8,19.64,10.61a113,113,0,0,1,9.06,11.58ZM214.31,196c-4.26,0-7.54-1.69-12.21-7.37-3.65-4.41-9.87-13.78-20.8-32l-4.52-7.55c-3.23-5.37-6.3-10.21-9.23-14.56l1.56-2.37c8.23-12.24,15.55-19.1,24.65-19.1,8.42,0,16.06,5.56,22,14.67,8.3,12.83,12.08,30.8,12.08,47C227.81,186.08,225.11,196,214.31,196Z"/></svg>