<svg id="Calque_1" data-name="Calque 1" xmlns="http://www.w3.org/2000/svg" viewBox="0 0 313 313"><path id="path64" d="M156.5,100.06a56.45,56.45,0,0,0-20.57,109c-.49-4.46-.94-11.33.2-16.2,1-4.41,6.62-28.06,6.62-28.06a20.36,20.36,0,0,1-1.69-8.38c0-7.84,4.55-13.7,10.21-13.7,4.82,0,7.14,3.61,7.14,8,0,4.84-3.08,12.08-4.67,18.79-1.33,5.62,2.81,10.2,8.35,10.2,10,0,17.75-10.58,17.75-25.85,0-13.51-9.71-23-23.58-23-16.06,0-25.48,12-25.48,24.49,0,4.85,1.87,10.06,4.2,12.88a1.69,1.69,0,0,1,.39,1.62c-.43,1.78-1.38,5.62-1.57,6.4-.24,1-.82,1.25-1.89.76-7-3.28-11.45-13.59-11.45-21.87,0-17.8,12.93-34.15,37.29-34.15,19.58,0,34.79,14,34.79,32.6,0,19.45-12.26,35.1-29.28,35.1-5.72,0-11.1-3-12.94-6.48l-3.52,13.42c-1.27,4.9-4.71,11-7,14.79A56.44,56.44,0,1,0,156.5,100.06"/></svg>