<svg id="Calque_1" data-name="Calque 1" xmlns="http://www.w3.org/2000/svg" viewBox="0 0 313 313"><path id="path47" d="M118.55,142.38l9.74,0-.13,37.14-9.73,0Z"/><path id="path49" d="M260.93,164.16l-.05,15.69-9.8-.07.13-38.11,17.59,15.25.05-14,9.71,0-.13,38.51-17.5-17.26"/><path id="path51" d="M69.52,160.68a19.09,19.09,0,0,1,31.59-14.37l-6.34,7.14a9.4,9.4,0,0,0-6.12-2.25A9.55,9.55,0,1,0,94.82,168l6.27,7.19a19.09,19.09,0,0,1-31.57-14.51"/><path id="path53" d="M146.67,188.1l-18.25-49-15.4,0-.14,40.59-10.08,0,.14-40.58-22.31-.08,5.21-9.73,49.8.17,11.13,29.36,11.34-29.29,48.22.16,5.28,9.77-46.34-.16-18.6,48.88"/><path id="path55" d="M177.83,179.57l0-8.2,6.69,0c1.09,0,3.16-.07,3.68-1.79,1.09-3.59-9.9-9.45-9.87-18.39,0-6.75,4.92-8.76,8.24-8.75l10.14,0,0,8.05-6.26,0s-1.8,0-2.3.72c-2.73,3.88,10,9.6,10,20.05,0,5.46-4.71,8.32-9.37,8.31l-10.94,0"/><path id="path57" d="M165.4,142.39l9.75,0L175,179.56l-9.75,0Z"/><path id="path59" d="M199.82,142.51l9.75,0-.12,37.14-9.75,0Z"/><path id="path63" d="M62.06,179.33,59.5,172.4l-12.09,0-2.61,6.91-10.36,0L53.62,124.9l18.82,54.46-10.38,0M50.4,162.45l5.75,0L53.3,153l-2.9,9.49"/><path id="path65" d="M211.28,161.14a19.13,19.13,0,1,1,19.07,19.2,19.12,19.12,0,0,1-19.07-19.2m9.63,0a9.5,9.5,0,1,0,9.53-9.46,9.5,9.5,0,0,0-9.53,9.46"/></svg>