<svg id="Calque_1" data-name="Calque 1" xmlns="http://www.w3.org/2000/svg" viewBox="0 0 313 313"><path d="M260.15,121.19H52.85A13.87,13.87,0,0,0,39,135v39.78a13.86,13.86,0,0,0,13.85,13.85H114.5l3.26-3-3.34-3.11H52.85a7.77,7.77,0,0,1-7.77-7.77V135a7.78,7.78,0,0,1,7.77-7.77h207.3a7.78,7.78,0,0,1,7.77,7.77v39.78a7.77,7.77,0,0,1-7.77,7.77H198.58l-3.34,3.11,3.25,3h61.66A13.86,13.86,0,0,0,274,174.82V135a13.87,13.87,0,0,0-13.85-13.85"/><polygon points="161.12 179.84 157.48 179.84 152.94 184.71 152.94 179.84 149.66 179.84 149.66 191.57 152.94 191.57 152.94 188.63 154.17 187.31 157.53 191.57 161.39 191.57 156.35 185.04 161.12 179.84"/><rect x="141.47" y="179.84" width="3.32" height="11.74"/><path d="M133.42,188.88a2.33,2.33,0,0,1-1.31.3h-2.79V186.8h2.79a2.33,2.33,0,0,1,1.31.29,1.15,1.15,0,0,1,0,1.79m-4.1-6.64h2.29a2.32,2.32,0,0,1,1.25.27,1,1,0,0,1,.42.87.93.93,0,0,1-.42.83,2.22,2.22,0,0,1-1.25.29h-2.29Zm5.93,3.29-.24-.07a3.15,3.15,0,0,0,1.16-1,2.78,2.78,0,0,0,.47-1.59,2.65,2.65,0,0,0-1.14-2.22,5.78,5.78,0,0,0-3.47-.85h-6v11.73h6.3a6.37,6.37,0,0,0,3.62-.85,2.72,2.72,0,0,0,1.23-2.36,2.84,2.84,0,0,0-.52-1.73,3.17,3.17,0,0,0-1.44-1.1"/><polygon points="168.06 186.85 173.28 186.85 173.28 184.38 168.06 184.38 168.06 182.42 173.98 182.42 173.98 179.84 164.79 179.84 164.79 191.57 174.2 191.57 174.2 188.99 168.06 188.99 168.06 186.85"/><path d="M186.56,185.5a5.17,5.17,0,0,0-1.3-.61c-.47-.15-.94-.27-1.41-.38s-.91-.19-1.3-.29a3.32,3.32,0,0,1-1-.37.71.71,0,0,1-.37-.63.78.78,0,0,1,.19-.5,1.25,1.25,0,0,1,.6-.38,3.1,3.1,0,0,1,1.11-.16,6.47,6.47,0,0,1,1.59.22,7.51,7.51,0,0,1,1.66.69l1-2.45a6.82,6.82,0,0,0-2-.78,10.22,10.22,0,0,0-2.28-.26,7,7,0,0,0-2.88.52,4,4,0,0,0-1.73,1.38,3.33,3.33,0,0,0-.57,1.89,3.05,3.05,0,0,0,.36,1.56,3,3,0,0,0,.95,1,5.86,5.86,0,0,0,1.31.62A12.93,12.93,0,0,0,182,187c.46.1.89.2,1.29.31a3.62,3.62,0,0,1,1,.38.69.69,0,0,1,.37.62.72.72,0,0,1-.19.51,1.22,1.22,0,0,1-.61.34,4.06,4.06,0,0,1-1.11.12,6.77,6.77,0,0,1-2.06-.33,7.8,7.8,0,0,1-1.82-.83l-1.08,2.47a7.35,7.35,0,0,0,2.15.91,10.67,10.67,0,0,0,2.79.36,7.2,7.2,0,0,0,2.9-.52,4.09,4.09,0,0,0,1.74-1.38,3.39,3.39,0,0,0,.58-1.89,2.76,2.76,0,0,0-1.34-2.52"/><path d="M260.15,121.19H52.85A13.87,13.87,0,0,0,39,135v39.78a13.86,13.86,0,0,0,13.85,13.85H114.5l3.26-3-3.34-3.11H52.85a7.77,7.77,0,0,1-7.77-7.77V135a7.78,7.78,0,0,1,7.77-7.77h207.3a7.78,7.78,0,0,1,7.77,7.77v39.78a7.77,7.77,0,0,1-7.77,7.77H198.58l-3.34,3.11,3.25,3h61.66A13.86,13.86,0,0,0,274,174.82V135a13.87,13.87,0,0,0-13.85-13.85"/><path d="M101.52,141.55H94.9a4.82,4.82,0,0,0-3.93,2L81.9,156.31l-.21.28,0,0-9.24-13a4.85,4.85,0,0,0-3.94-2H61.89a.2.2,0,0,0-.2.2v26.36a.19.19,0,0,0,.19.2h6.75a.2.2,0,0,0,.2-.2l0-18.1L81.5,167.74h0l0,0h0l.07,0h.14l.08,0h0l0,0h0L94.55,150l0,18.1a.19.19,0,0,0,.19.2h6.76a.2.2,0,0,0,.19-.2V141.75a.2.2,0,0,0-.19-.2"/><path d="M123.24,157.47l4.27-8.13,4.27,8.13Zm8.07-15.92H123.7a.18.18,0,0,0-.17.11l-14,26.53a.08.08,0,0,0,.07.12h7.78a.19.19,0,0,0,.17-.1l2.65-5.09h14.66l2.65,5.09a.19.19,0,0,0,.17.1h7.81a.08.08,0,0,0,.08-.12l-14.06-26.53a.2.2,0,0,0-.18-.11"/><path d="M180.6,159.17a9,9,0,0,0-2.18-17.54,5.93,5.93,0,0,0-.84-.06l-24.1,0a.2.2,0,0,0-.19.2l0,26.36a.19.19,0,0,0,.19.2h7.21a.2.2,0,0,0,.2-.2V147.86h15c3.48,0,3.66,1.61,3.66,3a2.86,2.86,0,0,1-2,2.83h0l-.07,0-10.28,3.07h0s0,0,0,0h0v0h0v0h0v0h0v0h0v0h0v0h0v0h0l0,0h0l10.25,11a.18.18,0,0,0,.14.06h8.88a.08.08,0,0,0,.06-.14l-7.69-8.37,1.83-.62h0"/><path d="M205.32,141.56h-7.11a.2.2,0,0,0-.2.2v26.36a.2.2,0,0,0,.2.2h7.09a.2.2,0,0,0,.2-.2l0-26.36a.19.19,0,0,0-.2-.19"/><path d="M251.3,141.55h-7.1a.19.19,0,0,0-.19.2l0,17.77a.2.2,0,0,1-.34.14l-14.6-16.45a4.51,4.51,0,0,0-3.7-1.66h-7.06a.2.2,0,0,0-.2.2l0,26.36a.2.2,0,0,0,.2.2h7.09a.2.2,0,0,0,.2-.2V150.34a.2.2,0,0,1,.35-.13l14.6,16.45a4.48,4.48,0,0,0,3.7,1.65h7.06a.2.2,0,0,0,.2-.2l0-26.36a.2.2,0,0,0-.2-.2"/></svg>