<svg id="Calque_1" data-name="Calque 1" xmlns="http://www.w3.org/2000/svg" viewBox="0 0 313 313"><path d="M39.37,164.9l-1.68,8.53H31.61l7.85-33.9h7.88l7.93,33.9H48.9l-1.69-8.53Zm6.76-5.27c-1.26-6.49-2.27-11.23-2.81-14.47h-.14c-.41,3.12-1.49,8.22-2.74,14.47Z"/><path d="M72.06,173.43,67,161H67l-5.1,12.48H55.48l8.15-17.35-7.87-16.55h6.91L67.4,150.8l0-.05,4.66-11.22h6.41l-7.76,15.95,8.21,18Z"/><path d="M98.23,158.36H87.35v9.85h11.3v5.22H81.35v-33.9h17.3v5.31H87.35v8.25H98.23Z"/><path d="M102.25,139.53h6.08v28.72h11.6l-.59,5.18H102.25Z"/><path d="M137.33,164.9l-1.68,8.53h-6.08l7.85-33.9h7.88l7.93,33.9h-6.37l-1.69-8.53Zm6.76-5.27c-1.26-6.49-2.27-11.23-2.81-14.47h-.14c-.41,3.12-1.49,8.22-2.74,14.47Z"/><path d="M162.15,159v14.46h-6v-33.9H166.5c6.16,0,9.65,3.21,9.65,9.26,0,4.9-2.62,7-4.39,7.72,2.62,1.23,3.86,3.46,3.86,8.47v1.35a40.22,40.22,0,0,0,.46,7.1h-5.87a27.82,27.82,0,0,1-.58-7.16V165c0-4.53-1-6.07-4.88-6.07Zm0-4.91H165c3.66,0,5.1-1.58,5.1-5,0-2.92-1.4-4.61-4.5-4.61h-3.45Z"/><path d="M186.85,139.53v33.9h-6.08v-33.9Z"/><path d="M213,173.43h-4.21s-.39-1.8-.71-2.89c-1.51,2.69-3.87,3.47-6.73,3.47-7.08,0-9.64-6.3-9.64-17.32,0-12.38,4.17-17.7,11.46-17.7,9.18,0,9.69,7.87,9.79,9.88h-6c-.1-1.37-.39-4.75-4-4.75-3.91,0-5,5.22-5,12.56,0,7.9.93,12.24,4.8,12.24,3.22,0,4.19-2.47,4.19-7.46v-1.9h-4.57v-5.18H213Z"/><path d="M223.71,164.9,222,173.43H216l7.85-33.9h7.88l7.94,33.9h-6.37l-1.69-8.53Zm6.77-5.27c-1.27-6.49-2.28-11.23-2.81-14.47h-.15c-.41,3.12-1.48,8.22-2.73,14.47Z"/><path d="M244.66,144.84h-7.24v-5.31H258v5.31h-7.24v28.59h-6.08Z"/><path d="M281.39,156.22c0,12.4-3.37,17.79-11.18,17.79-7.3,0-10.86-5.31-10.86-17.86,0-12.23,4.14-17.16,11.14-17.16C277.87,139,281.39,144.45,281.39,156.22Zm-15.81-.13c0,8,1.22,12.83,4.77,12.83,3.75,0,4.82-4.43,4.82-12.82,0-7.87-1.14-12-4.82-12S265.58,148.54,265.58,156.09Z"/></svg>