<svg id="Calque_1" data-name="Calque 1" xmlns="http://www.w3.org/2000/svg" viewBox="0 0 313 313"><path d="M245.33,193.59c-3.53,4.46-12.18,7.65-12.18,7.65L168.74,224.4V207.31l47.4-16.91c5.38-1.92,6.2-4.65,1.83-6.09s-12.26-1-17.65.92l-31.57,11.13V178.64l1.81-.61a108.27,108.27,0,0,1,22-4.67c12.83-1.41,28.55.2,40.88,4.88,13.9,4.4,15.46,10.88,11.93,15.34Zm-70.46-29.08V120.83c0-5.13-.94-9.85-5.75-11.18-3.67-1.18-6,2.24-6,7.36V226.39L133.69,217V86.61c12.53,2.33,30.79,7.84,40.6,11.14,25,8.58,33.41,19.26,33.41,43.31,0,23.44-14.45,32.33-32.82,23.45Zm-95.24,41c-14.26-4-16.64-12.42-10.13-17.25,6-4.45,16.23-7.81,16.23-7.81l42.24-15v17.15L97.58,193.48c-5.37,1.93-6.2,4.66-1.84,6.09s12.28,1,17.65-.91L128,193.37V208.7l-2.9.49a95.6,95.6,0,0,1-45.44-3.65Z"/></svg>