<svg id="Calque_1" data-name="Calque 1" xmlns="http://www.w3.org/2000/svg" viewBox="0 0 313 313"><path d="M105.92,141.68s-10.5-.34-14.73-9.82c0,0-9.83,11-25.08,14.91l1,2.71v35.07l-2.89,2.88S52.72,179,51.71,168.8s1-18,12.37-27.79a27.52,27.52,0,0,1,9.14-5.26v-1.19c-18.3,0-39.48,16.6-39.48,35.93,0,19.14,14.53,30.48,33.72,30.48,0,0,12.21.13,21.25-4.85v4.79c0,.37-.75.3-.75.3-2.62,0-4.73,1.73-4.73,3.87S85.34,209,88,209s4.74-1.73,4.74-3.88v-10.8s2.56-1.94,3.4-2.62a1,1,0,0,0-.84-1.69c-1,.34-2.55,1-2.55,1v-44.9s8.81.84,13.21-4.41ZM88.65,192c-15.26,1.69-19.32-1.69-19.32-1.69l12.54-10.67V143c0-1.69,6.78,2.54,6.78,2.54V192Z"/><path d="M125.41,181V158.62c0-.85,1.69-2.71,1.69-2.71-6.27-.67-16.26-5.58-16.26-5.58-5.59,4.73-14.58,5.24-14.58,5.24-.16,1,1.36,2.87,1.36,2.87v22a28.79,28.79,0,0,0-2.2,2.71c-1.53,2-.68,2-.68,2,12.54,1.35,17.62,6.6,17.62,6.6,5.6-6.26,15.08-7.62,15.08-7.62-1.52-.67-2-3.21-2-3.21Zm-10.17,1.69c-6.78-1.36-8.12-2.87-8.12-2.87V156.93c0-.51,8.12,2.87,8.12,2.87v22.88Z"/><path d="M190.47,181V158.62c0-.85,1.7-2.71,1.7-2.71-6.27-.67-16.27-5.58-16.27-5.58-5.59,4.73-14.57,5.24-14.57,5.24-.17,1,1.36,2.87,1.36,2.87v22a29.51,29.51,0,0,0-2.21,2.71c-1.52,2-.68,2-.68,2,12.55,1.35,17.63,6.6,17.63,6.6,5.59-6.26,15.08-7.62,15.08-7.62-1.52-.67-2-3.21-2-3.21Zm-10.16,1.69c-6.78-1.36-8.14-2.87-8.14-2.87V156.93c0-.51,8.14,2.87,8.14,2.87v22.88Z"/><path d="M231.2,183h-.06s-.37.56.06,0Z"/><path d="M263.5,182.52c-2.37-.35-3.39-3.23-3.39-3.23V153.37c-7.29-2.37-14.41-4.91-14.41-4.91a70.89,70.89,0,0,1-14,6.26c-.17,1,1.35,2.88,1.35,2.88v23.05L232,182c-.39.52-.63.84-.79,1,7.28.89,15.29,8.79,15.29,8.79l5.84-6.26,6.59,6.26,7.8-8.8-3.21-.5ZM250,181.84a49.35,49.35,0,0,0-7.29-4.43V155.24c-2.09-1.27,7.29,2.87,7.29,2.87v23.73Z"/><path d="M129.22,156.25l8.56-6.6s5.43,3.21,6.27,4.56c0,0,.85.69,7.79-3.88l1.2-.85s4.4,4,8.12,5.07c0,0-.84,7.46-14.06,3.9,0,0-2.88-.51-2.88.85v23.89H148s-5.77,3.38-7.8,6.45-1.88,2.18-1.88,2.18-.66-3.71-8-7.95l-.16-.51h3.39V160.65s-1.45-4.23-4.33-4.4Z"/><path d="M226.73,155.24c-3.58-1.45-9.49-6.11-9.49-6.11l-1.18.85c-6.95,4.57-9,4.74-9,4.74-.84-1.35-6.43-4.57-6.43-4.57L193,155.92c2.88.15,4.07,4.91,4.07,4.91v22.7h-3.4l.17.51c7.29,4.24,8.12,7.78,8.12,7.78s-.32,1,1.71-2,7.8-6.43,7.8-6.43h-3.73V159.46l4.41-3.39,3.38,2.89v24.23h-2s7.55,7.12,7.89,8.63c0,0,7-8.11,7.87-8.11h-3.39V158.45s1.69-2.88.84-3.21Z"/><path d="M116.6,135h78.51v-6.55H116.6V135Zm5.76-.89a2.17,2.17,0,1,1,2.16-2.17,2.16,2.16,0,0,1-2.16,2.17Zm16.61,0a2.17,2.17,0,1,1,2.15-2.17,2.17,2.17,0,0,1-2.15,2.17Zm16.83,0A2.17,2.17,0,1,1,158,132a2.17,2.17,0,0,1-2.16,2.17Zm16.6,0a2.17,2.17,0,1,1,2.16-2.17,2.16,2.16,0,0,1-2.16,2.17Zm16.94,0A2.17,2.17,0,1,1,191.5,132a2.17,2.17,0,0,1-2.16,2.17Z"/><path d="M116.6,127.66h78.67s0-2.13,0-4.37H116.6v4.37Z"/><path d="M116.6,122.53h78.69c0-.51,0-1,0-1.47a5.15,5.15,0,0,1,3.5-4.79,24,24,0,0,0,3.89-2.32c6.67-5.31,3.9-9.89,3.9-9.89s-2.26,5.09-9.94,4.3a5.27,5.27,0,0,1-4.18,4s1.89,2,1.3,4.21c0,0-.08,2.11-3.13,1.68,0,0-1.44-1.26.67-3.46l-3-2.37-2.87,2.19s1.93,1,.93,3.56a6,6,0,0,1-1.44,1c-.41.06-4.14-1.64-.17-5.76l-4.47-3.79-4.58,3.79s3.62,3.63.62,5.55c0,0-3.21,2.19-3.55-1.71,0,0-.4-1.24,1.19-1.85l-4.47-2.89-4.24,3s1.3.9,1.25,1.69.28,2.16-2.49,2.49a2.46,2.46,0,0,1-2.14-3.38c.85-3.12,3.95-3.5,5-3.79,0,0-2.88-4.86-10.95-6.33h-.06c-8.07,1.47-10.95,6.33-10.95,6.33,1.07.29,4.17.67,5,3.79a2.47,2.47,0,0,1-2.15,3.38c-2.77-.33-2.43-1.69-2.48-2.49s1.24-1.68,1.24-1.68l-4.24-3-4.46,2.89c1.58.61,1.18,1.85,1.18,1.85-.33,3.9-3.55,1.71-3.55,1.71-3-1.92.62-5.55.62-5.55l-4.58-3.79-4.46,3.79c4,4.12.23,5.82-.16,5.76a5.6,5.6,0,0,1-1.44-1c-1-2.54.92-3.56.92-3.56l-2.87-2.19-3,2.37c2.13,2.2.68,3.46.68,3.46-3.05.43-3.13-1.68-3.13-1.68-.6-2.21,1.29-4.21,1.29-4.21a5.29,5.29,0,0,1-4.18-4c-7.68.79-9.94-4.3-9.94-4.3s-2.77,4.57,3.91,9.89a23.81,23.81,0,0,0,3.9,2.32,5.16,5.16,0,0,1,3.49,4.8v1.46Z"/><path d="M195.39,123.29v-.76h-.1c0,.25,0,.49,0,.76Z"/><path d="M156,104.58a11.24,11.24,0,0,1,7.24,2.39l.13.15c1,1,1.56.93,2.83.93a2.6,2.6,0,0,0,2.58-2.63c0-1.45,0-2.63-2-4.48l-1.1-1,1.7-1.52c8.13,3.48,9.15,8.9,9.15,8.9h5.42c0-1.79-2.71-6.71-2.71-6.71,10.42,2.56,13.81,9.07,13.81,9.07A8.58,8.58,0,0,1,201.8,105l.94-2.8a24,24,0,0,0-6.05.51s1.47-1.8-2.26-2.26c0,0,.35-2.6-4.51-2.6,0,0,.21-1.7-2.83-2.82S183,95,183,95a4.44,4.44,0,0,0-3.4-2.38c-2.7-.56-3.62.57-3.62.57s-.55-1.81-4.51-2.27-4.63.8-4.63.8a3,3,0,0,0-2.48-1.47,3,3,0,0,0-2.61.92,1.71,1.71,0,0,0-2.59-.36,1.94,1.94,0,0,1-2-1s.23-1.25,1.23-1.49a10,10,0,0,1,1.81-.21s-.1-1.92-2.92-2.6c0,0,1.06-1.73-1.31-3.54h-.22c-2.37,1.81-1.31,3.54-1.31,3.54-2.82.68-2.93,2.6-2.93,2.6a9.82,9.82,0,0,1,1.8.21c1,.24,1.25,1.49,1.25,1.49a2,2,0,0,1-2,1,1.73,1.73,0,0,0-2.6.36,3.33,3.33,0,0,0-5.08.55s-.68-1.24-4.63-.8-4.51,2.27-4.51,2.27-.91-1.13-3.62-.57a4.47,4.47,0,0,0-3.4,2.38s-1-1.13-4.06,0-2.82,2.82-2.82,2.82c-4.86,0-4.52,2.6-4.52,2.6-3.73.46-2.25,2.26-2.25,2.26a24,24,0,0,0-6-.51l.92,2.8a8.59,8.59,0,0,1,8.82,4.65s3.4-6.51,13.81-9.07c0,0-2.71,4.92-2.71,6.71h5.42s1-5.42,9.15-8.9l1.69,1.52-1.1,1c-2,1.85-2,3-2,4.48a2.6,2.6,0,0,0,2.57,2.63c1.27,0,1.81.07,2.84-.93l.12-.15a11.25,11.25,0,0,1,7.25-2.39Z"/><path d="M204.56,227.56c-.86.23-1.84.49-2.5-.08-.87-.75-.46-8.71-.57-10.79a6.82,6.82,0,0,0,0-2.16,22.53,22.53,0,0,1-8.36-4.68,21,21,0,0,1-9.57,5.72,2,2,0,0,1,1.12,1.28v9.27a1.72,1.72,0,0,1-1,1.27,30.58,30.58,0,0,1,8.05,3.31c.33.19,3.08-2.08,4.41-2.43.71,1,3,3.34,5.23,2.34.77-.33,2.35-2.12,3.15-2.72a1.82,1.82,0,0,1,0-.33Zm-14.09-3.14s0-9.43,0-9.58c0,0,5,2.66,5,2.66l0,8.86-5-1.94Z"/><path d="M178,210.66c2.25,2.22,3.36,2.51,5.73,3.63-.59,2.58-5.44,3.29-8.53,1.77-.52-.25-1.69.46-1.69.46l0,10.46,1.48,0-4.75,3.62L166,227l1.69,0V215.64c-.89-1.16-2.3-.85-3.91-.18l4.47-4.24c1.64-1.4,4.17,2.87,5.32,2.75.48-.06,2.64-2.08,3.14-2.51a4.57,4.57,0,0,1,1.27-.8Z"/><path d="M132.38,210.43c3.81-.55,5.25,3.92,7.32,5.38,1.93-1.56,2.66-4.67,5.63-5.15a2.91,2.91,0,0,1,2.58,1c.84,1.34-.07,3-1.45,1.69a1,1,0,0,0-1.13-.31c-.59.19-4.11,4.38-4,5l.08.06c.4.81,6.21,7.84,6.6,8.14l.16.17c1.4.29,1.62-1.51,3.14-1.31.24,1.78-2.79,5-4.1,5.56-5.46,2.16-7.42-5.32-10.3-7.16a33,33,0,0,0-3.79,4.44,6.76,6.76,0,0,1-2,2.32c-1.09.57-2.37-.41-2.9-1.13s-2-4.32.81-2.89c.47.25,1.22.71,1.85.48a36.4,36.4,0,0,0,4.59-5.15,1,1,0,0,0-.09-.56,31.49,31.49,0,0,0-4.5-5.64l-.08-.06c-1.25-.39-1.66,1.35-3.3.88a3.9,3.9,0,0,1,.81-2.17c.39-.66,1.48-2.3,1.6-2.42a4.69,4.69,0,0,1,2.5-1.12Z"/><path d="M159.25,205.75c.13.12.35.09.4.25l0,4.84h3.9v1.83s-2.92-.2-3.64.26l-.45.21V225a6,6,0,0,0,1.42.87,1.71,1.71,0,0,0,.32,0c.58-.1,2.82-1.62,3.15-.4a1.13,1.13,0,0,1-.25,1c-.5.63-7.32,4.26-7.32,4.26s-4-3.4-4.35-3.7,1.13-1.53,1.13-1.53c.21-.83,0-7.51,0-9.83a9.64,9.64,0,0,0,0-2.4c.09-.86-2.64-.74-2.64-.74v-1.66a10.48,10.48,0,0,1,2.5-.18,9.37,9.37,0,0,1,.23-1.69,51.49,51.49,0,0,1,5.63-3.22Z"/><path d="M105.82,196.66a8.54,8.54,0,0,1,2.5.49,47.89,47.89,0,0,0,5.87.64,44,44,0,0,0,9.17-.41,10,10,0,0,1,3.06-.32,11.37,11.37,0,0,1-1.61,2.26c-.6.73-2.34,3.17-3.14,3.46a3.78,3.78,0,0,1-1.21,0c-1.61,0-3.87.1-5.55.09a17.59,17.59,0,0,0-4.35,0,20.65,20.65,0,0,0,.1,7c.91-.23,1.51-.71,2.32-1,2.5-.75,6.33,1.54,8.13.24.21-.15.43-.66.72-.71,2.36-.45-.81,4.88-1.77,5.31-1.61.72-4.23.47-6.12.15a5.7,5.7,0,0,0-2.65-.15c-1.49.55-.89,5.15-.89,7.15a2,2,0,0,1,0,.25,4.55,4.55,0,0,1-.47,2.32,5.93,5.93,0,0,0-.57,1.28,34.8,34.8,0,0,0,3.55-.47,21.88,21.88,0,0,1,5.86.74c1.3.19,3.54.48,4.51-.27.7-.51,1.11-2.45,1.86-2.81a1.7,1.7,0,0,1,1,0,1,1,0,0,1,.74,1.06,63.63,63.63,0,0,1-4.35,7.64v.08l-.24.07a3.33,3.33,0,0,1-1.13.1c-3.6-.27-7.38-1.38-10.87-1.7a23.85,23.85,0,0,0-3.78,0c-.92.07-4.37,1.2-5,.8-1-.62.57-1.78.88-2a3.62,3.62,0,0,0,1.12-1.39c.37-1.14.08-3.72,0-4.74-.29-4.47,0-9.46.09-14.15a9.73,9.73,0,0,1,.16-3.3c.4-1,1.79-1.64,2.41-2.58-2.48-.94-4.27,2.52-5.54,1.37a.73.73,0,0,1-.09-1.21c1.36-1.56,3-3,4.35-4.51.2-.22.6-.74,1-.8Z"/><path d="M275.22,183.77a.55.55,0,0,1,.25.52.5.5,0,0,1-.26.49,1.28,1.28,0,0,1-.45.06h-1v-1.13h1a1.06,1.06,0,0,1,.44.06Zm-2.34-.81v4.26h.87v-1.68h.92a.88.88,0,0,1,.54.14.79.79,0,0,1,.14.55v.4a1.29,1.29,0,0,0,0,.35c0,.07,0,.15.05.23h1v-.1a.34.34,0,0,1-.16-.26,1.94,1.94,0,0,1,0-.38v-.29a1.46,1.46,0,0,0-.11-.66.77.77,0,0,0-.43-.33.85.85,0,0,0,.52-.41,1.37,1.37,0,0,0,.15-.61,1.23,1.23,0,0,0-.09-.44,1.21,1.21,0,0,0-.21-.35,1.17,1.17,0,0,0-.41-.32,2.69,2.69,0,0,0-.7-.1Z"/><path d="M274.38,190.24a4.89,4.89,0,1,0-4.89-4.88,4.87,4.87,0,0,0,4.89,4.88Zm0-.75a4.14,4.14,0,1,0-4.14-4.13,4.13,4.13,0,0,0,4.14,4.13Z"/></svg>