<svg id="Calque_1" data-name="Calque 1" xmlns="http://www.w3.org/2000/svg" viewBox="0 0 313 313"><path d="M143.82,171.09c3.94,3.59,9.69,5.22,16.08,5.2,5.66,0,10.52-1.33,13.88-3.85a15.73,15.73,0,0,0,6.55-11.93H168.94c-.31,2.18-1.69,6.89-9,6.89a9.86,9.86,0,0,1-7.14-2.64,10.56,10.56,0,0,1-3.2-8v-.54a10.62,10.62,0,0,1,3.2-8,9.83,9.83,0,0,1,7.14-2.61c7,0,8.52,4.18,9,6.9h11.41a14.83,14.83,0,0,0-6.61-11.93c-3.68-2.57-8-3.87-13.65-3.87-7,0-11.95,1.55-16,5a19.37,19.37,0,0,0-6.3,14.64v.28C137.7,162.71,139.61,167.26,143.82,171.09Z"/><polygon points="219.9 164.93 199.59 164.93 199.59 138.69 187.21 138.69 187.21 174.83 219.9 174.83 219.9 164.93"/><polygon points="107.48 174.84 120.34 174.84 120.34 149.09 134.7 149.09 134.7 138.69 93.1 138.69 93.1 149.09 107.48 149.09 107.48 174.84"/></svg>